<mxfile host="65bd71144e" scale="10" border="0">
    <diagram id="Jf5RHwIwj3P055EiEldz" name="第 1 页">
        <mxGraphModel dx="1161" dy="657" grid="1" gridSize="10" guides="1" tooltips="1" connect="1" arrows="1" fold="1" page="1" pageScale="1" pageWidth="1169" pageHeight="1654" math="0" shadow="0">
            <root>
                <mxCell id="0"/>
                <mxCell id="1" parent="0"/>
                <mxCell id="276" value="" style="rounded=0;whiteSpace=wrap;html=1;strokeColor=#DAE8FC;fillColor=#DAE8FC;" parent="1" vertex="1">
                    <mxGeometry x="40" y="240" width="600" height="120" as="geometry"/>
                </mxCell>
                <mxCell id="275" value="" style="rounded=0;whiteSpace=wrap;html=1;strokeColor=#DAE8FC;fillColor=#DAE8FC;" parent="1" vertex="1">
                    <mxGeometry x="280" y="200" width="360" height="40" as="geometry"/>
                </mxCell>
                <mxCell id="274" value="" style="rounded=0;whiteSpace=wrap;html=1;strokeColor=#F8CECC;fillColor=#F8CECC;" parent="1" vertex="1">
                    <mxGeometry x="40" y="160" width="200" height="40" as="geometry"/>
                </mxCell>
                <mxCell id="273" value="" style="rounded=0;whiteSpace=wrap;html=1;strokeColor=#F8CECC;fillColor=#f8cecc;" parent="1" vertex="1">
                    <mxGeometry x="40" y="40" width="600" height="120" as="geometry"/>
                </mxCell>
                <mxCell id="257" value="" style="whiteSpace=wrap;html=1;aspect=fixed;" parent="1" vertex="1">
                    <mxGeometry x="240" y="160" width="40" height="40" as="geometry"/>
                </mxCell>
                <mxCell id="258" value="" style="whiteSpace=wrap;html=1;aspect=fixed;fillColor=#d5e8d4;strokeColor=#82b366;" parent="1" vertex="1">
                    <mxGeometry x="280" y="160" width="40" height="40" as="geometry"/>
                </mxCell>
                <mxCell id="259" value="" style="whiteSpace=wrap;html=1;aspect=fixed;" parent="1" vertex="1">
                    <mxGeometry x="320" y="160" width="40" height="40" as="geometry"/>
                </mxCell>
                <mxCell id="260" value="" style="whiteSpace=wrap;html=1;aspect=fixed;" parent="1" vertex="1">
                    <mxGeometry x="360" y="160" width="40" height="40" as="geometry"/>
                </mxCell>
                <mxCell id="261" value="" style="whiteSpace=wrap;html=1;aspect=fixed;" parent="1" vertex="1">
                    <mxGeometry x="400" y="160" width="40" height="40" as="geometry"/>
                </mxCell>
                <mxCell id="262" value="" style="whiteSpace=wrap;html=1;aspect=fixed;" parent="1" vertex="1">
                    <mxGeometry x="440" y="160" width="40" height="40" as="geometry"/>
                </mxCell>
                <mxCell id="263" value="" style="whiteSpace=wrap;html=1;aspect=fixed;" parent="1" vertex="1">
                    <mxGeometry x="480" y="160" width="40" height="40" as="geometry"/>
                </mxCell>
                <mxCell id="264" value="" style="whiteSpace=wrap;html=1;aspect=fixed;" parent="1" vertex="1">
                    <mxGeometry x="520" y="160" width="40" height="40" as="geometry"/>
                </mxCell>
                <mxCell id="265" value="" style="whiteSpace=wrap;html=1;aspect=fixed;" parent="1" vertex="1">
                    <mxGeometry x="560" y="160" width="40" height="40" as="geometry"/>
                </mxCell>
                <mxCell id="266" value="" style="whiteSpace=wrap;html=1;aspect=fixed;" parent="1" vertex="1">
                    <mxGeometry x="600" y="160" width="40" height="40" as="geometry"/>
                </mxCell>
                <mxCell id="267" value="" style="whiteSpace=wrap;html=1;aspect=fixed;" parent="1" vertex="1">
                    <mxGeometry x="120" y="200" width="40" height="40" as="geometry"/>
                </mxCell>
                <mxCell id="268" value="" style="whiteSpace=wrap;html=1;aspect=fixed;" parent="1" vertex="1">
                    <mxGeometry x="160" y="200" width="40" height="40" as="geometry"/>
                </mxCell>
                <mxCell id="277" value="" style="edgeStyle=none;html=1;" parent="1" source="269" target="276" edge="1">
                    <mxGeometry relative="1" as="geometry"/>
                </mxCell>
                <mxCell id="269" value="" style="whiteSpace=wrap;html=1;aspect=fixed;" parent="1" vertex="1">
                    <mxGeometry x="200" y="200" width="40" height="40" as="geometry"/>
                </mxCell>
                <mxCell id="270" value="" style="whiteSpace=wrap;html=1;aspect=fixed;" parent="1" vertex="1">
                    <mxGeometry x="40" y="200" width="40" height="40" as="geometry"/>
                </mxCell>
                <mxCell id="271" value="" style="whiteSpace=wrap;html=1;aspect=fixed;" parent="1" vertex="1">
                    <mxGeometry x="80" y="200" width="40" height="40" as="geometry"/>
                </mxCell>
                <mxCell id="272" value="" style="whiteSpace=wrap;html=1;aspect=fixed;" parent="1" vertex="1">
                    <mxGeometry x="120" y="200" width="40" height="40" as="geometry"/>
                </mxCell>
                <mxCell id="278" value="&lt;font face=&quot;Times New Roman&quot;&gt;now&lt;br&gt;2&lt;br&gt;&lt;/font&gt;" style="whiteSpace=wrap;html=1;aspect=fixed;" parent="1" vertex="1">
                    <mxGeometry x="240" y="200" width="40" height="40" as="geometry"/>
                </mxCell>
                <mxCell id="279" value="&lt;font face=&quot;宋体&quot; data-font-src=&quot;https://fonts.googleapis.com/css?family=%E5%AE%8B%E4%BD%93&quot; style=&quot;font-size: 22px&quot;&gt;二值化图像&lt;/font&gt;" style="text;html=1;strokeColor=none;fillColor=none;align=center;verticalAlign=middle;whiteSpace=wrap;rounded=0;" parent="1" vertex="1">
                    <mxGeometry x="40" y="10" width="120" height="30" as="geometry"/>
                </mxCell>
                <mxCell id="280" value="&lt;font face=&quot;宋体&quot; data-font-src=&quot;https://fonts.googleapis.com/css?family=%E5%AE%8B%E4%BD%93&quot; style=&quot;font-size: 22px&quot;&gt;已遍历区域&lt;/font&gt;" style="text;html=1;strokeColor=none;fillColor=none;align=center;verticalAlign=middle;whiteSpace=wrap;rounded=0;" parent="1" vertex="1">
                    <mxGeometry x="280" y="85" width="120" height="30" as="geometry"/>
                </mxCell>
                <mxCell id="281" value="&lt;font face=&quot;宋体&quot; data-font-src=&quot;https://fonts.googleapis.com/css?family=%E5%AE%8B%E4%BD%93&quot; style=&quot;font-size: 22px&quot;&gt;未遍历区域&lt;/font&gt;" style="text;html=1;strokeColor=none;fillColor=none;align=center;verticalAlign=middle;whiteSpace=wrap;rounded=0;" parent="1" vertex="1">
                    <mxGeometry x="277.5" y="270" width="125" height="30" as="geometry"/>
                </mxCell>
                <mxCell id="282" value="" style="whiteSpace=wrap;html=1;aspect=fixed;fillColor=#d5e8d4;strokeColor=#82b366;" parent="1" vertex="1">
                    <mxGeometry x="320" y="160" width="40" height="40" as="geometry"/>
                </mxCell>
                <mxCell id="283" value="&lt;font face=&quot;Times New Roman&quot;&gt;up&lt;br&gt;0&lt;/font&gt;" style="whiteSpace=wrap;html=1;aspect=fixed;fillColor=#d5e8d4;strokeColor=#82b366;" parent="1" vertex="1">
                    <mxGeometry x="240" y="160" width="40" height="40" as="geometry"/>
                </mxCell>
                <mxCell id="284" value="" style="whiteSpace=wrap;html=1;aspect=fixed;fillColor=#d5e8d4;strokeColor=#82b366;" parent="1" vertex="1">
                    <mxGeometry x="360" y="160" width="40" height="40" as="geometry"/>
                </mxCell>
                <mxCell id="285" value="" style="whiteSpace=wrap;html=1;aspect=fixed;fillColor=#d5e8d4;strokeColor=#82b366;" parent="1" vertex="1">
                    <mxGeometry x="400" y="160" width="40" height="40" as="geometry"/>
                </mxCell>
                <mxCell id="286" value="" style="whiteSpace=wrap;html=1;aspect=fixed;fillColor=#d5e8d4;strokeColor=#82b366;" parent="1" vertex="1">
                    <mxGeometry x="400" y="160" width="40" height="40" as="geometry"/>
                </mxCell>
                <mxCell id="287" value="" style="whiteSpace=wrap;html=1;aspect=fixed;fillColor=#d5e8d4;strokeColor=#82b366;" parent="1" vertex="1">
                    <mxGeometry x="360" y="160" width="40" height="40" as="geometry"/>
                </mxCell>
                <mxCell id="288" value="" style="whiteSpace=wrap;html=1;aspect=fixed;fillColor=#d5e8d4;strokeColor=#82b366;" parent="1" vertex="1">
                    <mxGeometry x="320" y="160" width="40" height="40" as="geometry"/>
                </mxCell>
                <mxCell id="289" value="" style="whiteSpace=wrap;html=1;aspect=fixed;fillColor=#d5e8d4;strokeColor=#82b366;" parent="1" vertex="1">
                    <mxGeometry x="480" y="160" width="40" height="40" as="geometry"/>
                </mxCell>
                <mxCell id="290" value="" style="whiteSpace=wrap;html=1;aspect=fixed;fillColor=#d5e8d4;strokeColor=#82b366;" parent="1" vertex="1">
                    <mxGeometry x="440" y="160" width="40" height="40" as="geometry"/>
                </mxCell>
                <mxCell id="300" style="edgeStyle=none;html=1;entryX=0.5;entryY=0;entryDx=0;entryDy=0;fontFamily=宋体;fontSource=https%3A%2F%2Ffonts.googleapis.com%2Fcss%3Ffamily%3D%25E5%25AE%258B%25E4%25BD%2593;fontSize=15;" parent="1" source="291" target="299" edge="1">
                    <mxGeometry relative="1" as="geometry">
                        <Array as="points">
                            <mxPoint x="705" y="180"/>
                        </Array>
                    </mxGeometry>
                </mxCell>
                <mxCell id="291" value="" style="whiteSpace=wrap;html=1;aspect=fixed;fillColor=#d5e8d4;strokeColor=#82b366;" parent="1" vertex="1">
                    <mxGeometry x="600" y="160" width="40" height="40" as="geometry"/>
                </mxCell>
                <mxCell id="292" value="" style="whiteSpace=wrap;html=1;aspect=fixed;fillColor=#d5e8d4;strokeColor=#82b366;" parent="1" vertex="1">
                    <mxGeometry x="560" y="160" width="40" height="40" as="geometry"/>
                </mxCell>
                <mxCell id="293" value="" style="whiteSpace=wrap;html=1;aspect=fixed;fillColor=#d5e8d4;strokeColor=#82b366;" parent="1" vertex="1">
                    <mxGeometry x="520" y="160" width="40" height="40" as="geometry"/>
                </mxCell>
                <mxCell id="294" value="" style="whiteSpace=wrap;html=1;aspect=fixed;fillColor=#d5e8d4;strokeColor=#82b366;" parent="1" vertex="1">
                    <mxGeometry x="80" y="200" width="40" height="40" as="geometry"/>
                </mxCell>
                <mxCell id="295" value="" style="whiteSpace=wrap;html=1;aspect=fixed;fillColor=#d5e8d4;strokeColor=#82b366;" parent="1" vertex="1">
                    <mxGeometry x="40" y="200" width="40" height="40" as="geometry"/>
                </mxCell>
                <mxCell id="296" value="&lt;font face=&quot;Times New Roman&quot;&gt;left&lt;br&gt;0&lt;/font&gt;" style="whiteSpace=wrap;html=1;aspect=fixed;fillColor=#d5e8d4;strokeColor=#82b366;" parent="1" vertex="1">
                    <mxGeometry x="200" y="200" width="40" height="40" as="geometry"/>
                </mxCell>
                <mxCell id="297" value="" style="whiteSpace=wrap;html=1;aspect=fixed;fillColor=#d5e8d4;strokeColor=#82b366;" parent="1" vertex="1">
                    <mxGeometry x="160" y="200" width="40" height="40" as="geometry"/>
                </mxCell>
                <mxCell id="298" value="" style="whiteSpace=wrap;html=1;aspect=fixed;fillColor=#d5e8d4;strokeColor=#82b366;" parent="1" vertex="1">
                    <mxGeometry x="120" y="200" width="40" height="40" as="geometry"/>
                </mxCell>
                <mxCell id="299" value="&lt;p class=&quot;MsoNormal&quot;&gt;&lt;font face=&quot;宋体&quot; data-font-src=&quot;https://fonts.googleapis.com/css?family=%E5%AE%8B%E4%BD%93&quot; style=&quot;font-size: 22px&quot;&gt;行寄存器数组&lt;/font&gt;&lt;br&gt;&lt;/p&gt;" style="text;html=1;strokeColor=none;fillColor=none;align=center;verticalAlign=middle;whiteSpace=wrap;rounded=0;" parent="1" vertex="1">
                    <mxGeometry x="650" y="240" width="110" height="70" as="geometry"/>
                </mxCell>
                <mxCell id="458" style="edgeStyle=none;html=1;entryX=0.367;entryY=-0.004;entryDx=0;entryDy=0;entryPerimeter=0;fontFamily=Times New Roman;fontSize=22;exitX=0.5;exitY=0;exitDx=0;exitDy=0;rounded=0;" parent="1" source="301" target="276" edge="1">
                    <mxGeometry relative="1" as="geometry">
                        <Array as="points">
                            <mxPoint x="110" y="390"/>
                            <mxPoint x="260" y="390"/>
                        </Array>
                    </mxGeometry>
                </mxCell>
                <mxCell id="460" style="edgeStyle=none;html=1;entryX=-0.071;entryY=0.472;entryDx=0;entryDy=0;fontFamily=Times New Roman;fontSize=18;rounded=0;entryPerimeter=0;" parent="1" target="346" edge="1">
                    <mxGeometry relative="1" as="geometry">
                        <mxPoint x="260" y="380" as="sourcePoint"/>
                        <Array as="points">
                            <mxPoint x="260" y="454"/>
                        </Array>
                    </mxGeometry>
                </mxCell>
                <mxCell id="301" value="&lt;font face=&quot;Times New Roman&quot;&gt;2&lt;/font&gt;" style="rounded=0;whiteSpace=wrap;html=1;fontFamily=宋体;fontSource=https%3A%2F%2Ffonts.googleapis.com%2Fcss%3Ffamily%3D%25E5%25AE%258B%25E4%25BD%2593;fontSize=15;fillColor=#fff2cc;strokeColor=#d6b656;" parent="1" vertex="1">
                    <mxGeometry x="80" y="410" width="60" height="30" as="geometry"/>
                </mxCell>
                <mxCell id="302" value="&lt;font face=&quot;Times New Roman&quot;&gt;4&lt;/font&gt;" style="rounded=0;whiteSpace=wrap;html=1;fontFamily=宋体;fontSource=https%3A%2F%2Ffonts.googleapis.com%2Fcss%3Ffamily%3D%25E5%25AE%258B%25E4%25BD%2593;fontSize=15;" parent="1" vertex="1">
                    <mxGeometry x="80" y="440" width="60" height="30" as="geometry"/>
                </mxCell>
                <mxCell id="303" value="&lt;span style=&quot;font-family: &amp;#34;times new roman&amp;#34;&quot;&gt;5&lt;/span&gt;" style="rounded=0;whiteSpace=wrap;html=1;fontFamily=宋体;fontSource=https%3A%2F%2Ffonts.googleapis.com%2Fcss%3Ffamily%3D%25E5%25AE%258B%25E4%25BD%2593;fontSize=15;" parent="1" vertex="1">
                    <mxGeometry x="80" y="470" width="60" height="30" as="geometry"/>
                </mxCell>
                <mxCell id="308" value="&lt;font face=&quot;Times New Roman&quot;&gt;...&lt;/font&gt;" style="rounded=0;whiteSpace=wrap;html=1;fontFamily=宋体;fontSource=https%3A%2F%2Ffonts.googleapis.com%2Fcss%3Ffamily%3D%25E5%25AE%258B%25E4%25BD%2593;fontSize=15;" parent="1" vertex="1">
                    <mxGeometry x="80" y="500" width="60" height="30" as="geometry"/>
                </mxCell>
                <mxCell id="309" value="" style="rounded=0;whiteSpace=wrap;html=1;fontFamily=宋体;fontSource=https%3A%2F%2Ffonts.googleapis.com%2Fcss%3Ffamily%3D%25E5%25AE%258B%25E4%25BD%2593;fontSize=15;" parent="1" vertex="1">
                    <mxGeometry x="360" y="410" width="60" height="30" as="geometry"/>
                </mxCell>
                <mxCell id="310" value="" style="rounded=0;whiteSpace=wrap;html=1;fontFamily=宋体;fontSource=https%3A%2F%2Ffonts.googleapis.com%2Fcss%3Ffamily%3D%25E5%25AE%258B%25E4%25BD%2593;fontSize=15;fillColor=#ffe6cc;strokeColor=#d79b00;" parent="1" vertex="1">
                    <mxGeometry x="360" y="440" width="60" height="30" as="geometry"/>
                </mxCell>
                <mxCell id="311" value="" style="rounded=0;whiteSpace=wrap;html=1;fontFamily=宋体;fontSource=https%3A%2F%2Ffonts.googleapis.com%2Fcss%3Ffamily%3D%25E5%25AE%258B%25E4%25BD%2593;fontSize=15;" parent="1" vertex="1">
                    <mxGeometry x="360" y="470" width="60" height="30" as="geometry"/>
                </mxCell>
                <mxCell id="312" value="" style="rounded=0;whiteSpace=wrap;html=1;fontFamily=宋体;fontSource=https%3A%2F%2Ffonts.googleapis.com%2Fcss%3Ffamily%3D%25E5%25AE%258B%25E4%25BD%2593;fontSize=15;" parent="1" vertex="1">
                    <mxGeometry x="360" y="500" width="60" height="30" as="geometry"/>
                </mxCell>
                <mxCell id="317" value="" style="rounded=0;whiteSpace=wrap;html=1;fontFamily=宋体;fontSource=https%3A%2F%2Ffonts.googleapis.com%2Fcss%3Ffamily%3D%25E5%25AE%258B%25E4%25BD%2593;fontSize=15;" parent="1" vertex="1">
                    <mxGeometry x="420" y="410" width="60" height="30" as="geometry"/>
                </mxCell>
                <mxCell id="318" value="" style="rounded=0;whiteSpace=wrap;html=1;fontFamily=宋体;fontSource=https%3A%2F%2Ffonts.googleapis.com%2Fcss%3Ffamily%3D%25E5%25AE%258B%25E4%25BD%2593;fontSize=15;fillColor=#ffe6cc;strokeColor=#d79b00;" parent="1" vertex="1">
                    <mxGeometry x="420" y="440" width="60" height="30" as="geometry"/>
                </mxCell>
                <mxCell id="319" value="" style="rounded=0;whiteSpace=wrap;html=1;fontFamily=宋体;fontSource=https%3A%2F%2Ffonts.googleapis.com%2Fcss%3Ffamily%3D%25E5%25AE%258B%25E4%25BD%2593;fontSize=15;" parent="1" vertex="1">
                    <mxGeometry x="420" y="470" width="60" height="30" as="geometry"/>
                </mxCell>
                <mxCell id="320" value="" style="rounded=0;whiteSpace=wrap;html=1;fontFamily=宋体;fontSource=https%3A%2F%2Ffonts.googleapis.com%2Fcss%3Ffamily%3D%25E5%25AE%258B%25E4%25BD%2593;fontSize=15;" parent="1" vertex="1">
                    <mxGeometry x="420" y="500" width="60" height="30" as="geometry"/>
                </mxCell>
                <mxCell id="325" value="" style="rounded=0;whiteSpace=wrap;html=1;fontFamily=宋体;fontSource=https%3A%2F%2Ffonts.googleapis.com%2Fcss%3Ffamily%3D%25E5%25AE%258B%25E4%25BD%2593;fontSize=15;" parent="1" vertex="1">
                    <mxGeometry x="480" y="410" width="60" height="30" as="geometry"/>
                </mxCell>
                <mxCell id="326" value="" style="rounded=0;whiteSpace=wrap;html=1;fontFamily=宋体;fontSource=https%3A%2F%2Ffonts.googleapis.com%2Fcss%3Ffamily%3D%25E5%25AE%258B%25E4%25BD%2593;fontSize=15;fillColor=#ffe6cc;strokeColor=#d79b00;" parent="1" vertex="1">
                    <mxGeometry x="480" y="440" width="60" height="30" as="geometry"/>
                </mxCell>
                <mxCell id="327" value="" style="rounded=0;whiteSpace=wrap;html=1;fontFamily=宋体;fontSource=https%3A%2F%2Ffonts.googleapis.com%2Fcss%3Ffamily%3D%25E5%25AE%258B%25E4%25BD%2593;fontSize=15;" parent="1" vertex="1">
                    <mxGeometry x="480" y="470" width="60" height="30" as="geometry"/>
                </mxCell>
                <mxCell id="328" value="" style="rounded=0;whiteSpace=wrap;html=1;fontFamily=宋体;fontSource=https%3A%2F%2Ffonts.googleapis.com%2Fcss%3Ffamily%3D%25E5%25AE%258B%25E4%25BD%2593;fontSize=15;" parent="1" vertex="1">
                    <mxGeometry x="480" y="500" width="60" height="30" as="geometry"/>
                </mxCell>
                <mxCell id="333" value="" style="rounded=0;whiteSpace=wrap;html=1;fontFamily=宋体;fontSource=https%3A%2F%2Ffonts.googleapis.com%2Fcss%3Ffamily%3D%25E5%25AE%258B%25E4%25BD%2593;fontSize=15;" parent="1" vertex="1">
                    <mxGeometry x="540" y="410" width="60" height="30" as="geometry"/>
                </mxCell>
                <mxCell id="334" value="" style="rounded=0;whiteSpace=wrap;html=1;fontFamily=宋体;fontSource=https%3A%2F%2Ffonts.googleapis.com%2Fcss%3Ffamily%3D%25E5%25AE%258B%25E4%25BD%2593;fontSize=15;fillColor=#ffe6cc;strokeColor=#d79b00;" parent="1" vertex="1">
                    <mxGeometry x="540" y="440" width="60" height="30" as="geometry"/>
                </mxCell>
                <mxCell id="335" value="" style="rounded=0;whiteSpace=wrap;html=1;fontFamily=宋体;fontSource=https%3A%2F%2Ffonts.googleapis.com%2Fcss%3Ffamily%3D%25E5%25AE%258B%25E4%25BD%2593;fontSize=15;" parent="1" vertex="1">
                    <mxGeometry x="540" y="470" width="60" height="30" as="geometry"/>
                </mxCell>
                <mxCell id="336" value="" style="rounded=0;whiteSpace=wrap;html=1;fontFamily=宋体;fontSource=https%3A%2F%2Ffonts.googleapis.com%2Fcss%3Ffamily%3D%25E5%25AE%258B%25E4%25BD%2593;fontSize=15;" parent="1" vertex="1">
                    <mxGeometry x="540" y="500" width="60" height="30" as="geometry"/>
                </mxCell>
                <mxCell id="341" value="&lt;font data-font-src=&quot;https://fonts.googleapis.com/css?family=%E5%AE%8B%E4%BD%93&quot; style=&quot;font-size: 15px&quot; face=&quot;Times New Roman&quot;&gt;X1&lt;/font&gt;" style="text;html=1;strokeColor=none;fillColor=none;align=center;verticalAlign=middle;whiteSpace=wrap;rounded=0;" parent="1" vertex="1">
                    <mxGeometry x="360" y="380" width="60" height="30" as="geometry"/>
                </mxCell>
                <mxCell id="342" value="&lt;font data-font-src=&quot;https://fonts.googleapis.com/css?family=%E5%AE%8B%E4%BD%93&quot; style=&quot;font-size: 15px&quot; face=&quot;Times New Roman&quot;&gt;Y1&lt;/font&gt;" style="text;html=1;strokeColor=none;fillColor=none;align=center;verticalAlign=middle;whiteSpace=wrap;rounded=0;" parent="1" vertex="1">
                    <mxGeometry x="420" y="380" width="60" height="30" as="geometry"/>
                </mxCell>
                <mxCell id="343" value="&lt;font data-font-src=&quot;https://fonts.googleapis.com/css?family=%E5%AE%8B%E4%BD%93&quot; style=&quot;font-size: 15px&quot; face=&quot;Times New Roman&quot;&gt;X2&lt;/font&gt;" style="text;html=1;strokeColor=none;fillColor=none;align=center;verticalAlign=middle;whiteSpace=wrap;rounded=0;" parent="1" vertex="1">
                    <mxGeometry x="480" y="380" width="60" height="30" as="geometry"/>
                </mxCell>
                <mxCell id="344" value="&lt;font data-font-src=&quot;https://fonts.googleapis.com/css?family=%E5%AE%8B%E4%BD%93&quot; style=&quot;font-size: 15px&quot; face=&quot;Times New Roman&quot;&gt;Y2&lt;/font&gt;" style="text;html=1;strokeColor=none;fillColor=none;align=center;verticalAlign=middle;whiteSpace=wrap;rounded=0;" parent="1" vertex="1">
                    <mxGeometry x="540" y="380" width="60" height="30" as="geometry"/>
                </mxCell>
                <mxCell id="345" value="&lt;font data-font-src=&quot;https://fonts.googleapis.com/css?family=%E5%AE%8B%E4%BD%93&quot; style=&quot;font-size: 15px&quot; face=&quot;Times New Roman&quot;&gt;1&lt;/font&gt;" style="text;html=1;strokeColor=none;fillColor=none;align=center;verticalAlign=middle;whiteSpace=wrap;rounded=0;" parent="1" vertex="1">
                    <mxGeometry x="330" y="410" width="30" height="30" as="geometry"/>
                </mxCell>
                <mxCell id="346" value="&lt;font data-font-src=&quot;https://fonts.googleapis.com/css?family=%E5%AE%8B%E4%BD%93&quot; style=&quot;font-size: 15px&quot; face=&quot;Times New Roman&quot;&gt;2&lt;/font&gt;" style="text;html=1;strokeColor=none;fillColor=none;align=center;verticalAlign=middle;whiteSpace=wrap;rounded=0;" parent="1" vertex="1">
                    <mxGeometry x="330" y="440" width="30" height="30" as="geometry"/>
                </mxCell>
                <mxCell id="347" value="&lt;font data-font-src=&quot;https://fonts.googleapis.com/css?family=%E5%AE%8B%E4%BD%93&quot; style=&quot;font-size: 15px&quot; face=&quot;Times New Roman&quot;&gt;3&lt;/font&gt;" style="text;html=1;strokeColor=none;fillColor=none;align=center;verticalAlign=middle;whiteSpace=wrap;rounded=0;" parent="1" vertex="1">
                    <mxGeometry x="330" y="470" width="30" height="30" as="geometry"/>
                </mxCell>
                <mxCell id="352" value="&lt;font data-font-src=&quot;https://fonts.googleapis.com/css?family=%E5%AE%8B%E4%BD%93&quot; style=&quot;font-size: 15px&quot; face=&quot;Times New Roman&quot;&gt;...&lt;/font&gt;" style="text;html=1;strokeColor=none;fillColor=none;align=center;verticalAlign=middle;whiteSpace=wrap;rounded=0;" parent="1" vertex="1">
                    <mxGeometry x="330" y="500" width="30" height="30" as="geometry"/>
                </mxCell>
                <mxCell id="353" value="&lt;p class=&quot;MsoNormal&quot;&gt;&lt;font style=&quot;font-size: 22px&quot; face=&quot;宋体&quot; data-font-src=&quot;https://fonts.googleapis.com/css?family=%E5%AE%8B%E4%BD%93&quot;&gt;标注序号栈&lt;/font&gt;&lt;/p&gt;" style="text;html=1;strokeColor=none;fillColor=none;align=center;verticalAlign=middle;whiteSpace=wrap;rounded=0;" parent="1" vertex="1">
                    <mxGeometry x="140" y="500" width="130" height="30" as="geometry"/>
                </mxCell>
                <mxCell id="354" value="&lt;p class=&quot;MsoNormal&quot; style=&quot;font-size: 22px&quot;&gt;&lt;font face=&quot;宋体&quot; style=&quot;font-size: 22px&quot;&gt;商品位置&lt;/font&gt;&lt;/p&gt;&lt;p class=&quot;MsoNormal&quot; style=&quot;font-size: 22px&quot;&gt;&lt;font face=&quot;宋体&quot; style=&quot;font-size: 22px&quot;&gt;寄存器数组&lt;/font&gt;&lt;/p&gt;" style="text;html=1;strokeColor=none;fillColor=none;align=center;verticalAlign=middle;whiteSpace=wrap;rounded=0;" parent="1" vertex="1">
                    <mxGeometry x="600" y="450" width="130" height="80" as="geometry"/>
                </mxCell>
                <mxCell id="459" value="&lt;font style=&quot;font-size: 18px&quot;&gt;stack_pop&lt;/font&gt;" style="text;html=1;align=center;verticalAlign=middle;resizable=0;points=[];autosize=1;strokeColor=none;fillColor=none;fontSize=22;fontFamily=Times New Roman;" parent="1" vertex="1">
                    <mxGeometry x="110" y="360" width="90" height="30" as="geometry"/>
                </mxCell>
                <mxCell id="461" value="&lt;font style=&quot;font-size: 18px&quot;&gt;adjust&lt;/font&gt;" style="text;html=1;align=center;verticalAlign=middle;resizable=0;points=[];autosize=1;strokeColor=none;fillColor=none;fontSize=22;fontFamily=Times New Roman;" parent="1" vertex="1">
                    <mxGeometry x="260" y="450" width="60" height="30" as="geometry"/>
                </mxCell>
            </root>
        </mxGraphModel>
    </diagram>
</mxfile>